<svg width="28" height="28" viewBox="0 0 28 28" fill="none" xmlns="http://www.w3.org/2000/svg">
<path d="M7 14H17.5C18.7377 14 19.9247 14.4917 20.7998 15.3668C21.675 16.242 22.1667 17.429 22.1667 18.6667C22.1667 19.9043 21.675 21.0913 20.7998 21.9665C19.9247 22.8417 18.7377 23.3333 17.5 23.3333H7V14Z" stroke="#1F1F1F" stroke-width="2" stroke-linecap="round" stroke-linejoin="round"/>
<path d="M7 4.66666H16.3333C17.571 4.66666 18.758 5.15832 19.6332 6.03349C20.5083 6.90866 21 8.09565 21 9.33332C21 10.571 20.5083 11.758 19.6332 12.6332C18.758 13.5083 17.571 14 16.3333 14H7V4.66666Z" stroke="#1F1F1F" stroke-width="2" stroke-linecap="round" stroke-linejoin="round"/>
</svg>
