<svg width="28" height="28" viewBox="0 0 28 28" fill="none" xmlns="http://www.w3.org/2000/svg">
<path d="M10.5 22.1667C4.66668 23.9167 4.66668 19.25 2.33334 18.6667M18.6667 25.6667V21.1517C18.7104 20.5954 18.6353 20.0361 18.4462 19.5111C18.2571 18.9861 17.9584 18.5073 17.57 18.1067C21.2333 17.6983 25.0833 16.31 25.0833 9.94C25.083 8.31113 24.4565 6.74473 23.3333 5.565C23.8652 4.13992 23.8276 2.56474 23.2283 1.16667C23.2283 1.16667 21.8517 0.758332 18.6667 2.89333C15.9927 2.16862 13.174 2.16862 10.5 2.89333C7.31501 0.758332 5.93834 1.16667 5.93834 1.16667C5.33912 2.56474 5.30151 4.13992 5.83334 5.565C4.70183 6.75348 4.07462 8.33404 4.08334 9.975C4.08334 16.2983 7.93334 17.6867 11.5967 18.1417C11.2128 18.5383 10.9168 19.0113 10.7279 19.5299C10.5389 20.0485 10.4613 20.6011 10.5 21.1517V25.6667" stroke="black" stroke-width="2" stroke-linecap="round" stroke-linejoin="round"/>
</svg>
