<svg width="28" height="28" viewBox="0 0 28 28" fill="none" xmlns="http://www.w3.org/2000/svg">
<path d="M20.23 6.37C19.9531 6.37 19.6824 6.4521 19.4522 6.60594C19.222 6.75977 19.0425 6.97842 18.9366 7.23424C18.8306 7.49006 18.8029 7.77155 18.8569 8.04312C18.9109 8.31469 19.0443 8.56415 19.2401 8.75994C19.4359 8.95574 19.6853 9.08908 19.9569 9.14309C20.2285 9.19711 20.51 9.16939 20.7658 9.06343C21.0216 8.95746 21.2402 8.77802 21.3941 8.54779C21.5479 8.31756 21.63 8.04689 21.63 7.77C21.63 7.39869 21.4825 7.0426 21.22 6.78005C20.9574 6.51749 20.6013 6.37 20.23 6.37ZM25.5967 9.19333C25.574 8.22534 25.3927 7.26763 25.06 6.35833C24.7634 5.58032 24.3017 4.87582 23.7067 4.29333C23.129 3.69533 22.4228 3.23653 21.6417 2.95166C20.7348 2.60885 19.776 2.42341 18.8067 2.40333C17.57 2.33333 17.1733 2.33333 14 2.33333C10.8267 2.33333 10.43 2.33333 9.19334 2.40333C8.22402 2.42341 7.26524 2.60885 6.35834 2.95166C5.57863 3.23942 4.8731 3.69782 4.29334 4.29333C3.69534 4.87104 3.23655 5.57717 2.95168 6.35833C2.60886 7.26523 2.42342 8.22401 2.40334 9.19333C2.33334 10.43 2.33334 10.8267 2.33334 14C2.33334 17.1733 2.33334 17.57 2.40334 18.8067C2.42342 19.776 2.60886 20.7348 2.95168 21.6417C3.23655 22.4228 3.69534 23.129 4.29334 23.7067C4.8731 24.3022 5.57863 24.7606 6.35834 25.0483C7.26524 25.3911 8.22402 25.5766 9.19334 25.5967C10.43 25.6667 10.8267 25.6667 14 25.6667C17.1733 25.6667 17.57 25.6667 18.8067 25.5967C19.776 25.5766 20.7348 25.3911 21.6417 25.0483C22.4228 24.7635 23.129 24.3047 23.7067 23.7067C24.3043 23.1263 24.7664 22.4212 25.06 21.6417C25.3927 20.7324 25.574 19.7746 25.5967 18.8067C25.5967 17.57 25.6667 17.1733 25.6667 14C25.6667 10.8267 25.6667 10.43 25.5967 9.19333ZM23.4967 18.6667C23.4882 19.4072 23.3541 20.141 23.1 20.8367C22.9137 21.3444 22.6145 21.8032 22.225 22.1783C21.8466 22.5639 21.3888 22.8625 20.8833 23.0533C20.1877 23.3074 19.4539 23.4415 18.7133 23.45C17.5467 23.5083 17.115 23.52 14.0467 23.52C10.9783 23.52 10.5467 23.52 9.38001 23.45C8.61105 23.4644 7.84537 23.346 7.11668 23.1C6.63342 22.8994 6.19659 22.6016 5.83334 22.225C5.44611 21.8502 5.15066 21.3911 4.97001 20.8833C4.68518 20.1777 4.52719 19.4273 4.50334 18.6667C4.50334 17.5 4.43334 17.0683 4.43334 14C4.43334 10.9317 4.43334 10.5 4.50334 9.33333C4.50857 8.57623 4.64679 7.82593 4.91168 7.11666C5.11707 6.62422 5.43232 6.18526 5.83334 5.83333C6.18779 5.43219 6.62585 5.11361 7.11668 4.89999C7.82782 4.64338 8.57734 4.50925 9.33334 4.50333C10.5 4.50333 10.9317 4.43333 14 4.43333C17.0683 4.43333 17.5 4.43333 18.6667 4.50333C19.4072 4.51182 20.141 4.64595 20.8367 4.89999C21.3668 5.09676 21.8427 5.41665 22.225 5.83333C22.6073 6.1917 22.9061 6.62985 23.1 7.11666C23.3593 7.82708 23.4935 8.57707 23.4967 9.33333C23.555 10.5 23.5667 10.9317 23.5667 14C23.5667 17.0683 23.555 17.5 23.4967 18.6667ZM14 8.015C12.8168 8.0173 11.6608 8.37028 10.6781 9.02932C9.69542 9.68836 8.93012 10.6239 8.47892 11.7177C8.02771 12.8115 7.91086 14.0145 8.1431 15.1747C8.37535 16.335 8.94629 17.4003 9.78377 18.2361C10.6212 19.072 11.6877 19.6408 12.8483 19.8708C14.009 20.1008 15.2118 19.9816 16.3047 19.5283C17.3977 19.075 18.3317 18.3078 18.9888 17.3239C19.646 16.3399 19.9967 15.1832 19.9967 14C19.9982 13.2126 19.8441 12.4327 19.5431 11.7051C19.2422 10.9775 18.8003 10.3166 18.243 9.76039C17.6857 9.20417 17.024 8.76362 16.2958 8.46408C15.5676 8.16454 14.7874 8.01192 14 8.015ZM14 17.885C13.2316 17.885 12.4805 17.6571 11.8416 17.2303C11.2027 16.8034 10.7048 16.1966 10.4107 15.4867C10.1167 14.7768 10.0398 13.9957 10.1897 13.2421C10.3396 12.4885 10.7096 11.7962 11.2529 11.2529C11.7962 10.7096 12.4885 10.3395 13.2421 10.1896C13.9957 10.0397 14.7768 10.1167 15.4867 10.4107C16.1966 10.7048 16.8034 11.2027 17.2303 11.8416C17.6572 12.4805 17.885 13.2316 17.885 14C17.885 14.5102 17.7845 15.0154 17.5893 15.4867C17.394 15.9581 17.1079 16.3864 16.7471 16.7471C16.3864 17.1079 15.9581 17.394 15.4867 17.5893C15.0154 17.7845 14.5102 17.885 14 17.885Z" fill="#1F1F1F"/>
</svg>
