<svg width="28" height="28" viewBox="0 0 28 28" fill="none" xmlns="http://www.w3.org/2000/svg">
<path d="M26.2967 7.49001C26.1581 6.93632 25.8758 6.42901 25.4784 6.01931C25.081 5.60962 24.5825 5.31205 24.0333 5.15667C22.0267 4.66667 14 4.66667 14 4.66667C14 4.66667 5.97332 4.66667 3.96665 5.20334C3.41744 5.35872 2.91896 5.65629 2.52156 6.06598C2.12415 6.47567 1.84191 6.98298 1.70332 7.53667C1.33607 9.57315 1.15643 11.639 1.16665 13.7083C1.15356 15.7932 1.33321 17.8749 1.70332 19.9267C1.8561 20.4632 2.14468 20.9512 2.54115 21.3436C2.93763 21.736 3.42861 22.0195 3.96665 22.1667C5.97332 22.7033 14 22.7033 14 22.7033C14 22.7033 22.0267 22.7033 24.0333 22.1667C24.5825 22.0113 25.081 21.7137 25.4784 21.304C25.8758 20.8943 26.1581 20.387 26.2967 19.8333C26.6611 17.8122 26.8407 15.7621 26.8333 13.7083C26.8464 11.6235 26.6668 9.54182 26.2967 7.49001V7.49001Z" stroke="black" stroke-width="2" stroke-linecap="round" stroke-linejoin="round"/>
<path d="M11.375 17.5233L18.0833 13.7083L11.375 9.89333V17.5233Z" stroke="black" stroke-width="2" stroke-linecap="round" stroke-linejoin="round"/>
</svg>
